<mxfile host="Electron" agent="Mozilla/5.0 (Windows NT 10.0; Win64; x64) AppleWebKit/537.36 (KHTML, like Gecko) draw.io/24.7.17 Chrome/128.0.6613.36 Electron/32.0.1 Safari/537.36" version="24.7.17">
  <diagram name="PÃ¡gina-1" id="VQL-4cbQJ8sFa3N1E6-Y">
    <mxGraphModel dx="997" dy="1632" grid="1" gridSize="10" guides="1" tooltips="1" connect="1" arrows="1" fold="1" page="1" pageScale="1" pageWidth="850" pageHeight="1100" math="0" shadow="0">
      <root>
        <mxCell id="0" />
        <mxCell id="1" parent="0" />
        <mxCell id="Rbzb1a8hx_c8ypVAKanI-1" value="&lt;p style=&quot;text-align:justify;text-indent:-18.0pt;&lt;br/&gt;line-height:150%;mso-list:l0 level1 lfo1&quot; class=&quot;MsoListParagraph&quot;&gt;&lt;font face=&quot;Arial, sans-serif&quot;&gt;&amp;nbsp; &amp;nbsp; &amp;nbsp;Tipo de cliente&lt;/font&gt;&lt;/p&gt;" style="rounded=1;whiteSpace=wrap;html=1;fillColor=#dae8fc;gradientColor=#7ea6e0;strokeColor=#6c8ebf;" vertex="1" parent="1">
          <mxGeometry x="600" y="237.5" width="130" height="35" as="geometry" />
        </mxCell>
        <mxCell id="Rbzb1a8hx_c8ypVAKanI-2" value="&lt;p style=&quot;text-align:justify;text-indent:-18.0pt;&lt;br/&gt;line-height:150%;mso-list:l0 level1 lfo1&quot; class=&quot;MsoListParagraph&quot;&gt;&lt;font face=&quot;Arial, sans-serif&quot;&gt;&amp;nbsp; &amp;nbsp; &amp;nbsp; &amp;nbsp;Promedio de ingresos&lt;/font&gt;&lt;/p&gt;&lt;p style=&quot;text-align:justify;text-indent:-18.0pt;&lt;br/&gt;line-height:150%;mso-list:l0 level1 lfo1&quot; class=&quot;MsoListParagraph&quot;&gt;&lt;span style=&quot;font-family: Arial, sans-serif; border: 1pt none windowtext; padding: 0cm;&quot; lang=&quot;ES-TRAD&quot;&gt;&lt;/span&gt;&lt;/p&gt;" style="rounded=1;whiteSpace=wrap;html=1;fillColor=#dae8fc;gradientColor=#7ea6e0;strokeColor=#6c8ebf;" vertex="1" parent="1">
          <mxGeometry x="600" y="292.5" width="130" height="30" as="geometry" />
        </mxCell>
        <mxCell id="Rbzb1a8hx_c8ypVAKanI-3" value="Aerolinea" style="rounded=1;whiteSpace=wrap;html=1;fillColor=#f5f5f5;gradientColor=#b3b3b3;strokeColor=#666666;" vertex="1" parent="1">
          <mxGeometry x="270" y="220" width="80" height="30" as="geometry" />
        </mxCell>
        <mxCell id="Rbzb1a8hx_c8ypVAKanI-4" value="Vuelo" style="rounded=1;whiteSpace=wrap;html=1;fillColor=#f5f5f5;gradientColor=#b3b3b3;strokeColor=#666666;" vertex="1" parent="1">
          <mxGeometry x="270" y="265" width="80" height="30" as="geometry" />
        </mxCell>
        <mxCell id="Rbzb1a8hx_c8ypVAKanI-6" value="&lt;b&gt;&lt;font style=&quot;font-size: 16px;&quot;&gt;Ingresos&lt;/font&gt;&lt;/b&gt;" style="ellipse;whiteSpace=wrap;html=1;fillColor=#f8cecc;gradientColor=#ea6b66;strokeColor=#b85450;" vertex="1" parent="1">
          <mxGeometry x="450" y="250" width="100" height="60" as="geometry" />
        </mxCell>
        <mxCell id="Rbzb1a8hx_c8ypVAKanI-7" value="" style="endArrow=none;html=1;rounded=0;exitX=1;exitY=0.75;exitDx=0;exitDy=0;" edge="1" parent="1" source="Rbzb1a8hx_c8ypVAKanI-3">
          <mxGeometry width="50" height="50" relative="1" as="geometry">
            <mxPoint x="610" y="365" as="sourcePoint" />
            <mxPoint x="450" y="271" as="targetPoint" />
          </mxGeometry>
        </mxCell>
        <mxCell id="Rbzb1a8hx_c8ypVAKanI-8" value="" style="endArrow=none;html=1;rounded=0;exitX=1;exitY=0.5;exitDx=0;exitDy=0;entryX=0;entryY=0.5;entryDx=0;entryDy=0;" edge="1" parent="1" source="Rbzb1a8hx_c8ypVAKanI-4" target="Rbzb1a8hx_c8ypVAKanI-6">
          <mxGeometry width="50" height="50" relative="1" as="geometry">
            <mxPoint x="340" y="238" as="sourcePoint" />
            <mxPoint x="435" y="339" as="targetPoint" />
          </mxGeometry>
        </mxCell>
        <mxCell id="Rbzb1a8hx_c8ypVAKanI-10" value="" style="endArrow=classic;html=1;rounded=0;exitX=1;exitY=0.5;exitDx=0;exitDy=0;entryX=0;entryY=0.5;entryDx=0;entryDy=0;" edge="1" parent="1" source="Rbzb1a8hx_c8ypVAKanI-6" target="Rbzb1a8hx_c8ypVAKanI-1">
          <mxGeometry width="50" height="50" relative="1" as="geometry">
            <mxPoint x="610" y="365" as="sourcePoint" />
            <mxPoint x="660" y="315" as="targetPoint" />
          </mxGeometry>
        </mxCell>
        <mxCell id="Rbzb1a8hx_c8ypVAKanI-11" value="" style="endArrow=classic;html=1;rounded=0;exitX=0.96;exitY=0.683;exitDx=0;exitDy=0;exitPerimeter=0;entryX=0;entryY=0.5;entryDx=0;entryDy=0;" edge="1" parent="1" source="Rbzb1a8hx_c8ypVAKanI-6" target="Rbzb1a8hx_c8ypVAKanI-2">
          <mxGeometry width="50" height="50" relative="1" as="geometry">
            <mxPoint x="554" y="348" as="sourcePoint" />
            <mxPoint x="700" y="238" as="targetPoint" />
          </mxGeometry>
        </mxCell>
        <mxCell id="Rbzb1a8hx_c8ypVAKanI-12" value="" style="shape=image;verticalLabelPosition=bottom;labelBackgroundColor=default;verticalAlign=top;aspect=fixed;imageAspect=0;image=data:image/png,iVBORw0KGgoAAAANSUhEUgAAAY8AAAH9CAYAAADicPAtAAAAAXNSR0IArs4c6QAAAARnQU1BAACxjwv8YQUAAAAJcEhZcwAADsMAAA7DAcdvqGQAADMrSURBVHhe7d0/b+NWusfxx3kD8QvYyrcRqMG2cTHlItUs4EJUylHhmbRbDAZCgIVGwBbGYortdwqljKTCuS8hGCAuBrcILEHNVre4SJN4gF0gfwrf5zk8lCmZskVb4t/vZ5eRSFGUxpL40+ERz3NwdXV1LRX36aefusuvv/5a3r9/L//85z/dPABgPw6ulb9eSR8/fiQ8ACBnn/hLAAC2RngAADIjPAAAmREeAIDMCA8AQGaEBwAgM8IDAJAZ4QEAyIzwAABkRngAADIjPAAAmREeAIDMCA8AQGaEBwAgM+p5AAAyo54HACAzDlsBADIjPAAAmREeAIDMCA8AQGZ0mANwXrx44a+h6bbZhxIeABwLj7dv3/o5NNWrV6+22ody2AoAkBnhAQDIjPAAGuLg4GA5xdbngW3R54El+/uhfp4/f+4CIvlRjwMjXmbzp6ena30e59I77Ol/vZORXI1O/Mz9znuH0pNs90Hxtu3zIDywZH+/kxM+6HVjO4N3797dCo/1j/5qh7kPjoyBceOx90dRCA9kFoeHvXlQH/Z5yNryWJwdy/FZS0ZXI0nu+qPlIv2LC+nLmRzrTGt0pe2Lnhz2fBvlpC/9xZmcLaLZuMXiWiJxM6bVl4uLvrTO7X4Lfd9p3JzbHU70+rlet5VO/OMv5Oz4eLm9k/XHW66HXSA81sQflljF/9l7kQwPArh+kp+BZGgYm0+2PNyOfuF38G5JJD08LqSly890yc36qy2Plfu1otsW/Qu5aJ25EGhtuG5B0V/cBJneMXpe/YUcx+v2k88Qj9X48LgdFv6KZzePRvpmxArCo7luhcf57W/027U8LDBsP38THqvb8y2Jlt6mrQxrebjtLaJtuJaFhke87ZPzRIvF0e3Y9uN1aXLs1NbhUfV6HnFwmDg8ouO7fuEaCw27zS713+6XIonwaKaVPo9FtPNerPVZrIRHcmfvV7kJCQ2MrVse24THWpC5w12Exz40puWRlNbyiIMivh6zZXaMF+kIj+a5dYa530EvJVsUNt9qSWuxuDls5fsk4kNJyz6OldZHtE68LHqMu8NjdLLa5+Hu61oshMc+bB0eo9GoNuFhkn0eyeO5Ju2YL4DIrfBAI20dHvrtu3Z7Ub41A9kRHjCVOGxlLQFaAEA5WHg8ffrUz6GpNv1idV1h4REFh11yCAkogzg8OFG0eR5yrlwpwsMQIECxkuGR/BXjfZI/l0f1PPRE68IHRiQzAKB6Cg8PDlsBQPUUEh7xISsA5WaHNDZNaLZCWx5RqyMKEwDl9+zZMzd9+PDBL0FTFRYecV6QG0A19Pt9+fbb9/LVV+/l++//6pfeYzKU4cwuu/Kk25WuTk+6E7FFqLbCwiM+bMXhK6Aajo6O5KefRD77TOTw8A9+6bbaEg7GMh6P5XIwl6FLFFRZIeFhHeTJlgcd5kD5vXz5Un744e/y449/ks8//5tf+gDtQGQ29zOoqsJaHjYcuo1qy+CEQLX88svP8ttv//ZzD2DBYQGCSiu0wxxA9fz668/y++//8XPbmslkGPV5dKeBjAdtvxxVRXgA2FoQ/Fm+++5LOTr6o19yj3AgLifCsVyOoz6P8SCMbkOlER4ANrJhK5JTq9WS169fL4ezQHMRHgCAzAgPAEBmhAcAILPChmS3oX9t6Odtq1YB2C/qeTRX3IdViXoehAdQLtTzaKbk61epeh4AgOohPAAAmREeAIDMCA8AQGaEB4D9iet5ZDQbdqP7zSYyuev+iTohqY8z2XD/+7aLexEeAHJigyMOpTu0YlB6Pd57245cd/JDC4yVPXq0/vALDYc4GW7t9OM6IaEGzkTnk49hc9HQ7zMNsYkFWfzYbru2LH5ctxoyIDwA5GKmO2wZDGQ8EBl25xLMdeetyydT3cGHod401mVTtyyiwRAGEujygSTWXRuQdzbVQNG9f1u3sfoYeo+5jw+7DAYy6FghKns4266upOHhts9YjZkRHgByoftvL9D9v+7SO/pf3XnPpSOBDdeu1zdpJ9Zd38+3g8C1PiwA1h8jandsFkYpc9OywdYIDwB7ZIeIrE9Cv+5ri2GirQE7ZGRDtbfbHd1x63ULBrfu/OZQViywO01kllj3FlvH08bHymNsLDnltzuZTC1n8ACcYQ7Ayf8M85l+6Z9KR7/9p0TCmnhdDZFJ3KLQFkd4/z1xN84wB1Ah1iKZun6HbYLjZl39nzYvQjcRHEUiPAAUwH4lNZDt9v9Z1kVeCA8AQGaEBwAgMzrMATjU82iuh3SYEx4AHOp5NBO/tgIA5IbwAABkRngAADIjPAAAmREeAPbnvnobjxXXC0k8zpNuNBw79ovwALBH6fU2hj5JlnU2Jsm6GtE6y5ocK7U4NokfZyyXAxt2nfjYN8IDwF6l1dsYdKZRUPg6G4GGR1xXI7Umx7IWxxah0A50I/cNxo7HIjwA7NV6vQ2ryzGZB9JJDIWerKuRtSbHLRYcFiDYK8IDwH6t1NtoR42C+WoozBJ1NbauybEirhui0zTQVgujKO5bYWeYGzujlbPLgXKoxhnmMw0a6nnsUuXOMD84OJB37965SwDYDvU8yqKQ8LDAsAZPPBEgAFAt9HkAADIjPAAAmRXWYZ48VFXQUwCQQD2PZkr+2KH09Tzi4LCHTl4HUJw4PJ4/f+6XoGkq8WurOCwIDQCoHvo8AACZFRYe8eEqfqYLANVzcHp6WsnjRpyZDuxW3OeBZtu6w/zq6qpy4fHq1SvCA9gxCw/AEB4AANc9sOsfJ9FhDgA1FgVHdLlLhAcANMQuA4TwAIAG2PUpdYQHADSANTp22e9BeABATcX9HftAeABAzUWtDvo8AABbivNih7nhEB4AUGPxYSs6zAEAW7EO8mTLgw5zAMBWRqORXF1dyenpqV+yG4QHACCzA02lPf2Qa3+2HfURAJrOqgNaaeFdjwmYy8CIyRq5Hz9+9Nce5vz8nPAAgC3tKzw+sR37PicAQP3Q5wEAyIzwAABkRngAADIjPAAAmZUqPP7yl7/4awCAMitNeMTBQYAAQPmVIjzWA4MAAYByO7je5UhZKeykwOT5HusnCSaD4h//+Met+XWcJIgqevHihb+Gpst737W3M8zLEh7JoEhbFiM8UEUWHm/fvvVzaKpd78C3sbczzP1lodZDIi00AADlUXh4bAoKAgQAyqtUP9UFAFQD4QHk7bwnh4eHN1PvXGRxJsd63a7Gtx+fLaL10/h13Pprznt+m2n84xwe9mS5xh3bysRt51juetqoD8IDKMjJ6MpVeLsanfgl3klU+e2i3/ILsjiX861C4FzO2MvjET6xXz/tcwKQUbIVIgs5O060UnRKtkgWZ8d+ubUkbF3forBWwB1NCfv1zeKsd6uVEG3Ptx5utYaOpde7ebyetXCWj33DtXxWlq/+G262t74eqiT3eh7/+te/HjwBdRLvZO86PBXt4FvSv0hpoRhrpVz0paW737Mz0fVG4tay5Wnrx/T20Ynu1Htnumvf1kIWrXi7GlWti+X1m9bOQlp9a1HZ84haN9G/4URG2pqy1c/1icaP2errNty6qBoOWwEFiQ9b3XV4arHQ3WzrRE5slVZLQ2JVS5elLd/GyUh32tq66N0RXqta2mK5eaT0x9Z5tyC6tOfv/g0aJL241WHLbBXltoFKIjyAEnM714V+s7e9bWKnuxvaGtCmQLRzT/Ggx7OwsIvoOd+EQ9TycH08tDRqgfAASqzV7+uO1vcZaAvh/u/p2kpxR5Lu7vNYcoev/HWV/fFuc4fjjs9k0erLSFtVJ6ML6beilofr49jmeaH0ch+e5H/+53/8tez+67/+i+FJUEk7GZ7EBcJC+he2M/bLUCkMTwIgH8vzMqJv7NG3eH/bvRLf9t3EORjYHVoeQA6s5fH06VM/h6YqYt9Vm1F1CQ80URwe9iFGs8T7P9uJEx4ZEB7AangkPw/3Wf/8oFqSr1/dwoM+DwBAZoQHACAzwgMoiB3S2DQBZUd4ACXx7NkzN3348MEvAcqL8ABKoN/vy7ffvpevvnov33//V7/0HpOJTGb+ujOR4XBlAbA3hAdQAkdHR/LTTyKffSZyePgHv/RuM5kvr02GXQ2OeB7YP+p5ACXw8uVL+eGHv8uPP/5JPv/8b37pPeZRfMyGQ5HBWAaDIFoO5CD3eh4ANvvll5/lt9/+7ee2M5e2EBvIG4etgBL59def5fff/+PnthNqcgyH1t8xFHo8kBfCAyiJIPizfPfdl3J09Ee/5G5tO1TV1ivhQMaDUAaDS720BcD+ER5AQdYP8VrhpNevX3O4F5VAeAAAMiM8AACZER4AgMxyH5L9sed+MCQ7qoh6Hs0V7/+o55ER4QFQz6Opkq8f9TwAAI1HeAAAMiM8gB04ODhYmYC6o88DubLjr3XT6/Vk/VO0nh+np6f0eTRQnfs8CA/kKn4j18nh4aELDwuMTZ+mFy/2EB6TrjyZiBsUcS6hfDMO5cGDk8wmMtFthJk3YMPBD2Uymcs8CCQMBzLQZzMJHrKt+iE8HoHwQFLyjVwX7969WwmNuNURB4rZS8tjMpRhoDtr20nPhtKddmQ8sMVT3X13ZKA3zHQdG7Z9rv/pDAbS1pAYTi1x9H66d49un/laILrDDwNdT0PIh0kw9/cPOhJMb7a7bjbsyrQTjbXltqnbt/tO7ca5bjOYyzR+Di5wNm+rTuocHnJ1dXW97ykp7fYs02g0utYPot8aqsZeP3sd6/Ya6kdpOcWS8/bvjf/tWdy5/vjN9ZtLf/16fB2G4+vLN6FeU5d6m16x+Widy+s3tsAbv3nj1lvePg6v9e46Hy1fv//6dtfdPM7qfZbbjq7oc7i8d1t1knz9itp37eszRz0PYAf0s7ScYuvzezXTr/XtwOpDydzK07pv+/62mK5jFQe7entWd273PkFbn9pNC+NR20Jp8GsroLKi8rPdrk7TwA3HHtqhKHecae4ON+kVXWfoplk4cEvcstXi524HbzXRrQNl4mqDTFZqg9ze7sPtclsoDn0eyNXejr+WXFFnmCf7InZnJjPrIHfXrZO83v0Wj1HnPg/CA7kiPHIOD995zf69GGUKD9t37lLh4fGXv/xF/vGPf/i5G5uWEx7VRnhwnkeTlCk8dq0U4WGSQZG2LEZ4VBvhQXg0SRnCw957+1Ca8DAWFuvz6wiPaiM8CI8mKUN47Esp+jySgRFLCw5DeFQb4UE9j6YhPB5om/Aw97U4YoRHtREetDyaJPn61S08SnOeRxwYdwUHAKAcSnWSIMEBANXAGeYAgMwIDwBAZoQHUEl+XKsnT+RJtyvD9bGqgD0jPIBKaks4GMsgDPyljWvoA8RqdrgCTUN3GS2NijYNh4QMduPAxnr31yuDn+pWFz/V3e1PdVeKMOn1uQaJJoRYgSdxy6NCTx2ZuNvCmQbI3ApB+Q1gr+r8U90DKxDir1cK4VFNhMf+wkNnNBgCcZX7ZOiXa3h0rZ6fhkkYupK1QRBKm4ESc1Hr8Nj3SYJAEuGxx/DQgBg++ULkm0vpTJ/IF7PQhcckGMtYw6SroRLaQOodRtnNS53Dgz4PoMLa1t+RDAJtVXTcvPWFaEjo7WM7RBUOZDwIo2UEB3aA8ABqwTrEpxJoOETZ0XaHqIB9ITyAWrBfX920Ktra0qCFgX0iPAAAmREeAIDM+LUVcsWvrajn0TT8VBfYAcKDeh5Nwk91AQBIIDwAAJkRHgCAzAgPAEBmhAdQZbOhPOlO/IyaTORBpT1mKffTbXe7XZ2G0W1p6yTddztqhfAAKmwyFQnbE4nLdMxs4EO7nET1PLob6np0hxM3H63XlSdf6Do6JXf+M9v2eCzjsZ2t7uuB2DoaUMPhTQGqu7aB+iI8gMqaaFQEMui0dUfv99hzHx92GQxkYHFil4OOTC0wNAB0RjQPZGgtFrfeWC4HgRsXKzmkSVvvM7eWh0umtoShXycMdRNjCeZTfQbqjm2gvggPoKrcIaq5DF25jqlvWdxB140zxkbdbWvMRO2UTdoysJZHoC2VxJExGwa+q4+NZiM8gIqaTNryjTYhBtaSCGeJYEiau8NNNs3CqILgRJPA5m2Y9uXIu4E2FzQQkpuwGulDO0SlOdF2VaSidSyr3HbXj0+lbAP1xRnmyBVnmOd7hvlqsaj7zGQ2iVsjgYQcf3o0zjAHUE2Z6nq0pR2Grk+D4MB9CA+gxqjrgX0hPAAAmREeAIDM6DBHrugwp55H09S1w5zwQK4ID+p5NAm/tgIAIIHwAABkRngAADIjPAAAmREeQJXts56H2DDsVs8jUdPjHjYcSjw8POqN8AAqbK/1PHS9ecfqecQ1PdzSlftb6CRre6A5CA+gsvZbz0NvcgPlWuvGWh8WULfu316r7YHGIDyAqnKHqPZXz8MFh2nbkO/u7i5QItH93WEtfR5oHsIDqKh91/No68pWSTCq6RHFTLh2/0hKbQ/UHmeYI1ecYU49jybhDHMA1UQ9D+wJ4QHUGPU8sC+EBwAgM8IDAJAZHebInXUeN6mz3FDPo5mSP3agngfwCAcHB/6aSJPeenF4PH/+3C9B0xAewANZcCTfbuvzdRaHB5qN8AAeoOnhARjCA8ioyeFRZfY6xYp8vcryPBDh11bIjX3gbQcQT+wAqqMsrxXvmfIgPJCb+JtjvANIfpNEOSVD3i6Les3K8jxwg/BArpI7AADVRXgA2Cj5LT/57T9vZXkeuEF4IFfJHQCqoyyvF++b8uDXVin4WSVM086CT7P+LX99Pi9leR64QXiksPB4+/atn0MTNa3eyCaEBzbhsBUAIDPCA8BG9u3evuXHU1Hf9svyPHCD8ABwp9FoJFdXV3J6euqXFKMszwMRwuM+5z05PDy8mXrnIoszOdbrdjW+/fhsEa2fxq/j1l9z3vPbBIAKITy2dDK6ct96rkZr9RhOom9DF/2WX5DFuZyTGwAqiPB4rGQrRBZydpxopay1SBZnx355T2PD1rVLZS0TWh8AKoTw2JI7vLQWBusWZz05W7Skf5HSQjHWSrnoS0sj4+xMdL2RuLVsedr6AFBShMeW4sNWdx2eWiw0WFoncmKrtFoaEqtauixtOQBUDeGxQy4cFudybo0TDZI7utABoNIIjx1q9ftyEvd7nC22aGFoK8WOVtHnAaBiCI/7+F9TrXRJtPpyES9LXtcwGOl196usfktjpKXhoBGyso1onfjw18ZfcQFAiREeu+R/eeV+UaUtiZPRhTzoF7wAUHIMjJjCBkZ8+vSpn0MTvX//noERva+//lpb0CeFDxZZlueBCOGRIg4Pe6OiOT799FN3aTspwuMG4YE0hEeKZHjEO5RtfPz4MdP6KI/ka0d4rCI8kIY+DwBAZoQHACAzwmNLdlhj0wQATUN4PNCzZ8/c9OHDB78EAJqD8HiAfr8v3377Xr766r18//1f/dJ7TIYynNllV550u9LV6Ul3IrYIAKqG8HiAo6Mj+eknkc8+Ezk8/INfuq22hIOxjMdjuRzMZegSBQCqhfB4gJcvX8oPP/xdfvzxT/L553/zSx+gHYjM5n4GAKqD8HiEX375WX777d9+7gEsOCxAAKBiCI9H+PXXn+X33//j57Y1k8kw6vPoTgMZD9p+OQBUB+HxQEHwZ/nuuy/l6OiPfsk9woG4nAjHcjmO+jzGgzC6DQAqhvDYkg1dkZys8NPr16+XQ1oAQJMQHgCAzAgPAEBmhAcAIDOGZE9BPY9mivuvGJJ9FUOyIw3hkYJ6Hs2TfO0Ij1WEB9Jw2AoAkBnhAQDIjPAAAGRGeAAAMiM88pKo4/GwUdgn0fDtk4lMMt3fj6X15Il7/KHdOfM2AGAV4ZEbX8dj0PajsNtOfSjdoS8INbNw8Dt3NzvUfbwVkIp2/sNhNHT7TPxlfHt8fx8SQwuGlWSIHncQBv5SHz+xjWG8DXc5TGzL5pPbAYAbhEdudIf8hX77/2IWlfHQnbMMBhomIsPuRPfxoc6OJZhPtY2h5rqLDwbSmdp6utMf+KHbbXl8qbcPOlFBqWh7Fg56U5QNmyW2IbaNQINr3nGPMV1uy7Y91XBx90CD9Xo9OTw8lHfv3vklxSjL80CE8MiNtgC+uZTLy1B3zhO3344Eess8OrSkrYZ1c711m4of266XKmhroN0MDW/PbW4tmHkgHcqNNNrBwYHEZ4LZpc0XoSzPAzcIj9xEh5W61soIQ/u/TPS6HR6y4dojGiJrnRGh7rztsNLNIaV02663jdAObVnTRJsw9zViUH/xfrro/XVZngcinGGeotJnmM+GMpxGLYZoxx+4MMDdOMM8XfyN33bYN5f57zLK8jxwg5ZHXVhoaKvDBccglLZr3dhEcODxyrLDJjjKg/Coi/ZABtbJbcHhFwGPZTtp21kXrSzPAzcIDwBbib71F78HL8vzaDrCA8BWyrK/JjfKgQ7zFNTzaCY6zNOtdlYXt7soy/NAhPBIQT2P5tn3r63sPQWYunwpITxSEB7Nk0d4vH371s+hqepUyIo+DwBAZoQHACAzwgMAkBnhkZdlPY+hDOOaHhvqasxsaPXk8lnKeon6IE+68bDsa9Luh9JYnB27UWIPe+d+iTqPRo49Plv4Bbt13lt7POCBCI/c+Hoe44F0/CngcV0Nu3arFsc8Gm5k5m7T618M14Ig3t5YLgfRsOwWFjc1QZL389dXEgnFOpezOCDOz3XOOxnJ1dWVXPRbfsEu6eOQG9gRwiM38Q58cjNSra+rkVqLw9XqsJFybZTbQGcHsnGYKlcgRO+4UhNEw8XfL3A1QajPUSouMFrSH/X1v4md+uJMjrXl4RoHvhUSTT1dx+aP5fg4sSy6V9SiiNc9PhMXSyv3t/v59W05rQ88EuGRG2spRGNPrZfIeFQtDuOCI3CHu1JrgmiDg/oc5XJuadE6cT8HP9FGhpvfoNW/0NbISKJTVhc6f+Xno9aLHf7qnWsQXfjlGkC9xGGv6P4XcnHht2GtmxEnwOJxCI8SuLcWhxVq0p3/6m3RoS7r8+hOA1feNmq0JGqC+PsF1OcoGd/ScK2MY3H7edcSSddqJQ9htXT+5nKx0PDQKW15bPX+wG4QHnkJtdXhDzu17RCVXo8v7baxtkgGnWhE3OXyti13K8p4rAnj+kR8v0g4lstx1Odh9zWuD8S2dTkWt8Tdz4Znj7ZvLR9GaC8BHxQnI2sp6HQRHbpa9oHcycLCLnQbemnBEIWDX+4vCQzsG+FRBiu1ODbt3dvU6KiFhYaEiw5ZDp1mh6+staChsk18uP4N69do9WXU1/DoX8joRLfr+kJ6cn4y2tDh7h+TPg/sAMOTpGB4kuapxPAkbqe/kP7Fhezlx1jYO4YnAQA0Gi2PFLQ8miePloe9p9BsdRrqn/BIkQwPNEce4cF7qnn2+b4qEuGRgpZH8+TV8uA91Sz7fl8ViT4PAEBmhAcAIDPCAyiIHdLYNAFlR3gAJfHs2TM3ffjwwS8ByovwyE1iLKru+vDqHvU3Gqvf78u3376Xr756L99//1e/9B6Toa8Ls0VtF2DHCI+c2LDr844fi2rsx5ii/ga8o6Mj+eknkc8+Ezk8/INfuq2U2i7AnhEeObFh0W2QWxvHyr4hus839TfgvXz5Un744e/y449/ks8//5tf+gBxbRdgzwiPnLjgMDbSbRh9vqm/gXW//PKz/Pbbv/3cA/jaLsC+ER45aQ9CmVuLQ0NhOIm+Gcb/pf4GYr/++rP8/vt//Ny2btd2AfaNM8xTcDZw8yRfu7zOMF//Se7//d//yX//93/Ll19+ubIO76nq2vf7qki0PICC2E4lOVkBp9evXy93NkCZER4AgMwIDwBAZoQHACAzOsxTUHuhmeK+hn13mKNZ9vm+KhLhkYJfWzVPEb+22gbvqWrj11YAACQQHgCAzAgPAEBmhAcAILNPrCPPJuzbTCa+5oLV83BDsW85crYNoJi6blzP4U6rj5t5kF5qjJSXq+MRv6ITfX0Zghn5+eTt27f+qsjBwcHKtL6sLpL/prz+Xa6eh6+5YPU8OrZwbiEy9MV71mt4RPPd4WQ5OOJMwyJtR+6WW5Douus3rz9umNiurTub+Pv4kFjdln9OKTVGluutPyBy1JawbQNt+lmzUiMmep2G8evpLje934BsDq6urq5fvXol7969k/Vf7dqONbksnrefnFVVr9fTf4Of8dbz4/T0dOc/q7Rv/7r31p13xFoT085YBqI78mnHXdpOPpzpB3qu4TL3t7f9unafwIZzT4yYajsDXdaZrm4rOapq2uO6x3HfVEW3P9d5DZX1x423Feil6Lwu3/T86qCSP9X1r3+gr6mN868NEX2po1fagsFqwtht7nXS16urr9vYFYsK9MvL6vttEL9BsFP8VDfBPgT2AajqFEsGhoVJctqHZT2PDdZreCyLR3l6k4TJ4NjS+uPadiOBfm/dfsh3aoyUV2jBMYxeyU01YuyN0E68GXg98VgPanlUuY8k+nf6GRWHiC2Lr++j5aG7fxnaMelQv+LN57rrnrmytDff8Kf6zTDQFoHuBDraErBvipMwKler953rMv3KKEGiFbFNy2P9cTvBTIZuu7rNwN9HH7et30Bn4aX7hrqyrY4+L/2mOgj1G2vi+QXxY2bPs1Kqcssjap0+kSczbVno6zqxkBjOJLwc37Q89PWMWhh2WEtfz/X3W01ex7Kpc8tjGR72D1o//m9BkVy2Hi5VlfZvipfF4VjOs4FnMpvErQX94Kd+4rdZB+sqGR4ovTqHx8phK9txJqf1ZXWR9m+qxr+xLW1tQYRu2hQK26wDAI/DeR4AgMwIDwBAZoQHACCzlQ5zRJKdm2iOvDrM0Sx17TAnPFLwy5jm4ddW2IfG/NoKAIBtEB4AgMw+OT8/91cBANgOLQ8AQGaER15c7YWopsZQL91I2DYw3XKgwhu36nek1dR4RC2HW9vfxq3namMkZd0IdmvmRk1e1mqJX6P7arDYmFh2+/I9Gb2XeDWRBeGRm7aErq7GQDp+1JCZH4HK7QRsh24f/vhTv6z1kaypEd0UuV3LIa02R3otB3VHLZG0Wh23nqsfxRXFWa/VErjXKH6/aCjEL+DGMInfk2O5dEO1p64EpCI8chPvoG+KO9m42O7jrstFP8RWU2Ee32ijpXbcQLoShoHOpox82hlLoN8el/mhd47urpd2xY3rrtsJNGTmHRkMApnGOwhbrg8wtWBxj2+PN43CyJ6XH611af256rZQLPfy3nqNNBDc+yUaSddezslUX7n7hjlr6+s5i998wP0Ij9zYtzzbYYf6DXGVfeAfuitO1nLYaK2WwwrdYUx1J7RtbYfHPFfs1qaXNNbWJq69rnPp3Azjv4kFhwUIsCXCowT0i6JrkawcVkqyvUR8SOqWUL9h6o5fr9lnf+K2c9/x67lrBdk0CzXQtEnjvnQuWy6b3ftckZu2fhGZW/+Zvjfs9Vi+dvH7pe2brvFx0luiQ5Cuz2QarNWBAe52MBqNrut01uMuFHY2sJUEndrhpbQPcd51OppVF6SeZ5jPZNidSmesIUKNl0Jwhjn2y0JDvyEO9dtfZ+O3v7zrdFAXpNqsVTF1fWX6SvJaYucIjzJoW19I1B/CRxu7EfWxkRXYF8IDAJAZ4QEAyIwO8xTUXmimvDrM0RzJHzvUrcOc8EhB7YXmyevXVs+fP/dL0DT82goA0HiEBwAgM8IDAJAZfR4p6PNonrz6PNBsddrXEh4p9hIeVjthYoND2DmBY+lMuzLtjFdHrs3Khk230W/nN9ueSyjfjDnZMKs8wgMwtdnXWnicnp5e44b9PezvcnV15Zds5871x2+u31y6K9dhOL6+fBNG85fj6zd2fexu1Nk312Nb942uEy3Ru9p8NLci3uZy2+ryzXWYti7ulHzt+Ezsnu5qlhPqgT6PHM2mE20sTNw4Q0vtUAbaEgnm06guR1xLoxMV57lVa+M+1GVASen+xl9DHRAeOWoHgavcZkWfYlYStjvZnApW8GfbWhsOdRlQMgcHB8vgsEubR/URHnlKqd4TtRHmN+Vn19goqPfX2qAuA4B80WGeory/tmpWjY087bvDvOni1keyFYJqo+VRKdRlQHVxuKpeCA8AexW3NuKJEKkHwgMAkBnhAQDIjA7zFMkOczQHHeb7kzxURYd5PRAeKcr7ayvsC7+22j/7XPE3rQ8OWwHYOwvkt2/fMsZXjRAeAIDMCA8AQGaEBwAgM8IjT7OhPOkmBkG0AQ8TQ1rZIIlDm19bvhWr7eHu29XHiMa5ssfKuhkA2AbhkaPJVCRsT6KdvJr5UapmuuOfxDt/m19fPoxDwAZAtPm7IqHtRu4dj8dyOYiGdQeAXSM8cjPRSAhk0GnLbOp36Fa7I760Gh7xcFXry6ntAaBkCI+8uENRGgLa+tD0eNDhJGp7ACgLwiMnk0lbvhlrq0FbDuNwJnHjIwtqewAoC84wT1GNM8yp7bFLnGG+X/Y3tc/Tq1ev+LvWBC2PyqK2B4DiEB4AgMwIDwBAZoQHACAzOsxTUM+jeZI/dKDDfPfoMK8fwiNFHB7Pnz/3S9AkhMfuER71w2ErAEBmhAcAIDPCAwCQGeEBAMiM8AAAZEZ4AAAyIzwAAJkRHgCAzAgPAEBmjQyPg4ODlQkAkM1yeBIbjqMJer2eXF/7GW89P05PTxmepMEYnmT3GJ6kfpbh8fbtW7+o3g4PD114WGCsh0jsxQvCo8kIj90jPOpnGR5N8e7du5XQiFsdcaCYuOWB5iI8dovwqJ9Gjqqb7Oe49kkSL7N5G1UXYCe3O4RH/TAke4HSQqwIZXke6+x55fV88nysJiI86oef6hasLDussu04o535arDtS56PBdQF4VGQ5Ddduyxqx1WW53GXPJ9TGf/9QBkRHig1n2u5yPOxgKojPAqS/Jaf/Paft7I8j03sqeX1nPJ8LKDqCI+CleUwSVmeh4lCzM/sWZ6P1WR2cq6dY2U/lUc9EB4Fib/lx1NRO++yPI809lT0KeXynPJ8rKaJ3mPRdf7G9UF4oJTi/Use+5k8H6up+BvXD+GBUkp+U923PB+rqfgb1w/hUZD4EFE82XwRyvI8kqLnFF23y30+pzwfq+nsT8vfuD4IjwLZh8jG0Sr6w1SW55E0Go3k6urKPa99y/OxmsjeV3FAoz4IjwLZkA02mnHRY2mV5Xmg/uz7ibVwUX2EB4DckBv1QXgAyFWZDo/i4RhVt0BlGWm0jCOe5vmc8ngsDgkiVpd9LeFRIMJjszqGR1OqdWKzMn3GHovDVgCAzAgPAEBmhAcAIDPCAyjEufQOD91Is27qneuiaOTZ47NFtEbPLwdKiPAAcmfB0ZPzk+jMdjeNTkT8/EW/5dY5JzdQYoQHkLPF2ZlGw4mMLDCSFmdyrC2P3vlCzo41XGyZtUZ6ZzqvrZDjM7E2iWuR+OtAUQgPIGeLhe72Wy2x9kW6lvQvRhovylojo76cnOjaC22N6H3d3U9O7rg/sH+EB1AECwF/dRutvgaI3mNxbgHSisIEKNAndoIggPycaBC0rN8jU2f4iQaGyPnZmSxaep3sQME+sbMd63LGI1AJrb5cWH+H/3XV8tdWK6KwiPo8otvsLHjDISuUAYetgCIkf2kV/9rKQkWvx/3oJ6PEbUsn0ne/xgKKRXgApWe/vopaJycj35EOFOzgmvGRC8PAiJvVcWDEp0+f+jk0VZ0GoSU8CkR4bFbX8LDHQbN8+umn7tLeZ7UawdzCA8Ww4fCvrq6uT09P/ZJilOV5JOX5nPJ4LNt2/DhZZF0f5ZJ8/ez1L9Nn7LHo8wAAZEZ4AAAyIzyAgnz8+HHjBJQd4QGUxLNnz9z04cMHvwQoL8IDKIF+vy/ffvtevvrqvXz//V/90ntMhjKc2WVXnnS70tXpSXcitgjYN8IDKIGjoyP56SeRzz4TOTz8g1+6rbaEg7GMx2O5HMxl6BIF2C/CAyiBly9fyg8//F1+/PFP8vnnf/NLH6AdiMzmfgbYH8IDKJFffvlZfvvt337uASw4LECAPSM8gBL59def5fff/+PntjWTyTDq8+hOAxkP2n45sD+EB1ASQfBn+e67L+Xo6I9+yT3CgbicCMdyOY76PMaDMLoN2DPCAyiIjXmUnFqtlrx+/Xo5FhJQZoQHACAzwgMAkBnhAQDIjPAAcpY2ltWmKev6TOWaas0PzY4C2J8/nopEPQ/qeWA/kq8f9TywEwcHB5oY0XW7tHkAqArCo0BxXpAbAKqG8ChQsuUBAFVCeBQsOmTlOj38EgAoP8KjIBYWHK7C48xk4ut4dLtDmfilW5tNZLLN6O3UDUEKwqMEotYHSYJsZsOhzH0dj/F4IKEbIHEo3WG0Y59N/A7eh8RMQ2BiQeBuj9YdfmHztlwDIa4DsjFUqBuCG4RHCZAbeIi57ruDxAC6FiYyGIjmiAy1ZSDzuUSVPfTSrugd5sFABh3b8YuEYSCBrt/RIJkHY/lGotbLZGrDurs7bkbdkMYjPEqCPg9klQwOY2ESCXTfHwfH9todvZe2VuYaJ/eOzUvdkMY7sJM9/PVbXrx44a+h6f75z3/6a/n4+uuv5eTkRF69erX3x87jseyz9PTpU/c4WUbNtbOUN68/iVoYoe7qtWnRCWYynIQStjUAtCUx0JZEd65BMhvKLLyUwbwr045fPu3IuDOV7jCI1rflbb3/ky9EvtF1k8Fkh7qsxaL3f6IP5yKjHTL8+xaSr5+9z96/f5/7Z2lf7g2Pt2/f+jk0VR478HWER+Tu8Ng1DY/uVDrjjgZG3HLRcAnvO4aFTeocHhy2AqCsA33q+kDa9j9tzYRuIjiQjvAAoOyXVAMhK7AtwgMAkFnm8FicHcvh4aEc9s79EnXec8uOzxZ+QcLiTI71Nrf6XesBACojY4f5ufQOe/pfcyKjq5H+9x4WHsdn0hpdyejelVFGdJg/XrLDHM1Ch7k5P9fgaEl/1Nf/6vW48ZHSuoimOGi8W+sdS6/nWzJ6PWqQLOTsOL6/XxeoEduZbDtlXZ+pXFOdZQqPc0uL1on79nTS8vMbtPoXcnVvy2Qhi9ZIri4sjBa6PZ0/62mIWKsmaqmcn53pLQCAMskQHr6l4VoPvpXgWiLpWi1Nl3u1NIh0PV03XnuxcBuWXtzq0HnCAwDKZfvw8EFxMrrSFoVOrrVwLmd76fyOWh7ucbbpVwEA5GrL8FhoSLjo0JZCtMQdvtLmwkJDZZfxcTK6kH4ranm4fg86PQCgdLYMj5b0L9ZbAX6ZtUBafbnwfRS693cthuUvq5K33VrPgsJWiloaF24mfiw/LTcEYIWrrxFX8ZhId3kd2L9MHeYAyqTtBjUcJjNjpvPDri6Lhti1Gh7DuIaHuxyKvyWq50FNDjzQved52G/T0WxF/Da9zud5ZPkJ550DI/rRbgMNCxmH1hCRsV5GN0W1Pew2N5LuvCvdudX6sFoegXQkKiQVznQbupwBcvej0aPqcmJTMxX9hic8ItuEx0BbH93hXBsTgbs+DEIJrfpTMjw0LKKQsJZJIIGGxjwM3fDqga7fZkyrvWBUXWV/gG2nrOszlWtC1YQaDhNXBTAaRn0uk3uKk9toua4Q4LLaIJANfR5AVYXW6oiutgeXcj3WFofVGNfl48uxqwbY1nm3Tjs+NKVBYwtsHV3ASLp4KMIDAJBZ5vCwY3ibJgBAMzy65fHs2TM3ffjwwS8BANTdo8Kj3+/Lt9++l6++ei/ff/9Xv/Qe9gsR68tzJzh1pauTnejEr80BoDoeFR5HR0fy008in30mcnj4B790W1b2cizj8Vgu3W/PiQ80Q9oh301T1vWZyjXV+deLjwqPly9fyg8//F1+/PFP8vnnf/NLH6AdSPS7QaDe1n8WzVTvqc4e3edhfvnlZ/ntt3/7uQew4LAAAQBUwk7C49dff5bff/+Pn9uWja0T9Xl0p4GM4x+sAwBK79HhEQR/lu+++1KOjv7ol9wjPrEpHMvlOOrzsJOVAADVkTk81o/pWcXA169f1/74HgDgxtYDI2YJh7r/yqDukq8fAyPuBiNUwzRyVF3CozkIj92zzxJgCI87EB7VRnhg1w4ODvw1kTt2OagQ6nkgFeGBXbLwsF1NfInqo+WBW2h5YJfWA4MAqYednOcBAGgWwgPAXlkrI+7zoNVRH4QHgFzEAYJ6IDwA7FXc2ognQqQe8g8PV8fDSvW7GekurwMAqqKAlkdbwvZEhsnMmOn8sKvLopoeMysYZZOu5K4Ph75YlA2maPPU/gCAIhVz2KozlkBbIMv8aIcyGOiy+TRaNtdwCAYyCDRU5h29LZCpBsZMg0NnZNCZroYPgNKKD1XFEx3m9VBYn0c4DrUVERWAmtnQ7JOUNAja0tYpZpky1/Um80A6lP8AKmM0GsnV1ZWcnp76Jai6AjvMtbWh7QyLjChC5jLxh602CcN2VHBwPvf3AQAUIf/wiOt5qPbgUq61BeJqmevy8eVYI8WWj6N12rquK/Vhh7V0ga2jC8LBQDRHAAAFKbDlAQCoKsIDAJAZ4QEAyIzwAABkRj0PpGJIduwSf+MasvDY5PT09Ho0Gl1fXV35JdvJuj7KJfn62etv74O8xe+7PB47z8dqKv7G9cNhKwBAZoQHACAzwgMAkBnhAQDIrIDwmMmk25Wum4Y3I+tuazaRe4bAithQ7raeqx8SPZ7VEdnmrgCAu+UeHjas+tzGshrbNJDQ1+joWu0Ou33id/A+JKyexySu7eHXHX4R1fiYWDDEtT02hko7GjtLH+9yMKcWCADsQO7h4Up1JAY1jGt0aI7I0KoKLkfM1Us3gu5M5lbbo2M7fhtZN5BA1+9okMyDsXwjUetlMtWV7xsssR3oAzIeLwA8Vu7hkQwOY2ESCXTfn32o9XZH76WtlbnGiRuA9y4WHBYgAICtJYt5xXIPj/YglHnXSs5a6dmhBLrHn2iLww5H2ZDr2rDQ63bbhv4JSx8XFl67o00Wva+GSDo71OX7WKaBtnDua54AAGJx9cd4WoaInSm4STXOML+8fhO+0f/q/8bj67GbLv1teIjk68cZ5tgF/sbVZK+X5sfKa2fzpoBfW+2StSqmrg+kbf8LQwndROsCAB4rHofMxrpLjklmLY+Kh4f9koqqggCwL9pqXB6qsskaHzZVPDwAAPt2dXUlp6enLjRihAcAILOtw+Pjx49bT1nXZyrXFNfyWJdsutq0vgxAc2xVDOr58+d+CZomLgb17t27lSarscBILovn7T67EBcPsvfgth7yXqVQ0f7xN66uTa8dh62wU/aFw95oj52S0m5PmyzkAOSDlgfu9JCWh71vHisuf2zfdrbx9u3bB3+r5Vvx/vE3rq6Nr52FxyZ2Uoid3IPmstc/eXJQclpftktZTip77Aloj70/7sffuLo2vXZbtTzQbNbyyPvbYpZvqo/9Vsu34v3jb1xdm167e8MDMHl/4AmPeuFvXF0bw+N///d/N4YHAABp7mx5AACQ5sA6Qvx1AAC2wnkeAIDMCA8AQGaEBwAgI5H/B8R5BxTExCwqAAAAAElFTkSuQmCC;" vertex="1" parent="1">
          <mxGeometry x="80" y="-290" width="383.32" height="489" as="geometry" />
        </mxCell>
        <mxCell id="Rbzb1a8hx_c8ypVAKanI-14" value="" style="html=1;rounded=1;absoluteArcSize=1;arcSize=10;whiteSpace=wrap;fillColor=none;strokeColor=#5fd80e;strokeWidth=3;" vertex="1" parent="1">
          <mxGeometry x="80" y="120" width="50" height="20" as="geometry" />
        </mxCell>
        <mxCell id="Rbzb1a8hx_c8ypVAKanI-15" value="" style="endArrow=open;html=1;rounded=0;align=center;verticalAlign=top;endFill=0;labelBackgroundColor=none;endSize=6;strokeColor=#18e60a;strokeWidth=3;entryX=0;entryY=0.5;entryDx=0;entryDy=0;exitX=0.75;exitY=1;exitDx=0;exitDy=0;" edge="1" parent="1" target="Rbzb1a8hx_c8ypVAKanI-3">
          <mxGeometry relative="1" as="geometry">
            <mxPoint x="90" y="140" as="sourcePoint" />
            <mxPoint x="-27" y="465" as="targetPoint" />
            <Array as="points">
              <mxPoint x="90" y="230" />
            </Array>
          </mxGeometry>
        </mxCell>
        <mxCell id="Rbzb1a8hx_c8ypVAKanI-16" value="" style="html=1;rounded=1;absoluteArcSize=1;arcSize=10;whiteSpace=wrap;fillColor=none;strokeColor=#5fd80e;strokeWidth=3;" vertex="1" parent="1">
          <mxGeometry x="140" y="-80" width="50" height="20" as="geometry" />
        </mxCell>
        <mxCell id="Rbzb1a8hx_c8ypVAKanI-17" value="" style="endArrow=open;html=1;rounded=0;align=center;verticalAlign=top;endFill=0;labelBackgroundColor=none;endSize=6;strokeColor=#18e60a;strokeWidth=3;entryX=0;entryY=0.5;entryDx=0;entryDy=0;exitX=0.5;exitY=1;exitDx=0;exitDy=0;" edge="1" parent="1" source="Rbzb1a8hx_c8ypVAKanI-16" target="Rbzb1a8hx_c8ypVAKanI-4">
          <mxGeometry relative="1" as="geometry">
            <mxPoint x="150" y="-60" as="sourcePoint" />
            <mxPoint x="370" y="35" as="targetPoint" />
            <Array as="points">
              <mxPoint x="170" y="280" />
            </Array>
          </mxGeometry>
        </mxCell>
        <mxCell id="Rbzb1a8hx_c8ypVAKanI-18" value="" style="html=1;rounded=1;absoluteArcSize=1;arcSize=10;whiteSpace=wrap;fillColor=none;strokeColor=#5f0ed8;strokeWidth=3;" vertex="1" parent="1">
          <mxGeometry x="330" y="-270" width="50" height="20" as="geometry" />
        </mxCell>
        <mxCell id="Rbzb1a8hx_c8ypVAKanI-19" value="" style="endArrow=open;html=1;rounded=0;align=center;verticalAlign=top;endFill=0;labelBackgroundColor=none;endSize=6;strokeColor=#830ae6;strokeWidth=3;exitX=0.5;exitY=1;exitDx=0;exitDy=0;" edge="1" parent="1" source="Rbzb1a8hx_c8ypVAKanI-18" target="Rbzb1a8hx_c8ypVAKanI-1">
          <mxGeometry relative="1" as="geometry">
            <mxPoint x="340" y="-250" as="sourcePoint" />
            <mxPoint x="460" y="90" as="targetPoint" />
            <Array as="points">
              <mxPoint x="360" y="190" />
            </Array>
          </mxGeometry>
        </mxCell>
        <mxCell id="Rbzb1a8hx_c8ypVAKanI-20" value="c" style="shape=image;verticalLabelPosition=bottom;labelBackgroundColor=default;verticalAlign=top;aspect=fixed;imageAspect=0;image=data:image/png,iVBORw0KGgoAAAANSUhEUgAAANAAAAElCAYAAACVjGxqAAAAAXNSR0IArs4c6QAAAARnQU1BAACxjwv8YQUAAAAJcEhZcwAADsMAAA7DAcdvqGQAAA+WSURBVHhe7d3PbiJXFsfx47xA+wFm1SsErdnGCy+jrHokFsAsw8LueQGrhSJFNFIW1shv4F7g5QAL8gqRpXjRq6hBvEI2CS3NSPmz8JxTdYvGbvPHPtDUpb6fpJqqAgqSvj/Ovbiu6+BWCYAn+SLcAngCAgQ4ECDAgQABDgQIcCBAgAMBAhwIEOBAgAAHAgQ4ECDAgQABDgQIcCBAgAMBAhwIEOBAgAAHAgQ4ECDAgQABDrn4pSKnp6dhDUV2eXkZ1uKRmwBdXFyELRTR2dlZlAGiCwc4ECDAgQABDvkL0ORcjg4P5XC2HMn5JNy3I8Omvo/mMGzNm8j50fx7DcuDj8U+ym0FqnanMp12pWqN9HyXDXIow4UvX5LWjb3PG2mVdLPa1XXd7lbTu7H34unC3alMVpXCp//RuUYsVAlbHzaT+5vNo/DYpq5nz2tqHJKD3akcScH45HnZa4Tn2P1rV5bl7+1o9tpL3g+ikNsAJY3OGlipJTf2iW639umefNprg9N+XbWqH/sTrRDa0PVfKVWrWhOMbpe0GiSVYKjrN7N1qyaT86aGoypdPZ7tHp6nDX32vJuWHmeSPLZ1Y1VQWXVZu7KUlr63UiurrsPkv2Px+0HefXF1dSWPWT6XtAunS9KYVfLpbaH6OCYqtVpJF2+iLX04CY02vWduXbdKuq5LtmdiLVobbzP7tLdGntwTnjf32Kda9t7s7WS39l4Wvx/k3RdV/WRcd7m+vg5P+9ys4mjLSqpQqAgJe1/hE7uk649q9eknfhLSO8fclEXvzQJjNxYsy2p2x7bfD7bhC/sJ8DrLbmVdIhsHWYMMu5UF23zsIq1W7Vo3MP3ET6ra0kFHGoTHjYFSi97bbEykHwjdlv63Per9IE/WOpXHum7WGCxI2zjdwnUqT9KwRT+9c/ipff+9JdsTHVeFb+0ws622tW0R/yA1fHOln9bV7ucKz1yVSJZFP6PaxXvDLuSmAh0fH4ctFJGNr/f2bOzPFaBszIBiePbsWXJr7SvWAIkFaJVut3s7nU5vT05Owp7NsuNmr/EYj3088mP+787+7rfVtrYt4jEQsHsECHDIbYA+fPiwcAHyIpoK9PLly2R59+5d2APsXhQBarVa8sMP1/Ltt9fy00/fhb0r9DvSGdltQ140GtLQ5UWjL7YL2JQoAvT8+XP59VeRL78UOTz8W9i7rorU2z3p9Xryvj2WTpIqYDOiCNCrV6/k55//Lb/88pV8/fX3Ye8TVMoio3HYAPyiGQOZ33//Tf78879h6wksPBYiYEOiCtAff/wmf/31v7C1rpEOh9IxUGNQll67EvYDftEEqFz+h/z44790PPT3sGeFeluSrNR17KPjHxsD9dr19D5gQ3IbIDtPan6xiWevX7+enT8F5EFUXTggbwgQ4ECAAAfmA2FnsvEs84GcmA9UPMwHAsAYCPAgQIADAQIc9jdAyTygfrYhjdk6sDl7XIEqUq/0pTOfm5Fudxq6L50TNLJJd7bog5L1TidMuLMTUG2buUNYbr+7cLWelLUSzTJUqUu7rfvGg3TfWANSbku7rMEa1/S+sgw0NCMNj25Iuza4G0Dgnr0fA9V7da0m6SS6kU1r6D+QiHJFKrpkLFdjfVx/XJYa04ewRAG+RNCqo/XGYpPGaCz90IVbpF6vpBNXx+PwHGCB8APVpTgTAZvGmQgAitCFA7aHAAEOBAhwYD4QdmL+d1swH8gp+xYOxcS3cEBBESDAgQABDgQIcCBAgAMBAhwIEOBAgAAHAgQ4ECDAgQABDgQIcCBAgAMBAhwIEOCQqwl1KK5YJ9TlJkAAAcKTHRwc2OzgsIVYMAbKgTQ86S3iQoByhhDFhQDlCD24+BCgHLHiwzgoLgRox7LxD+JEgHIirT6MgWJDgHIgywzZiQ8ByoGsC0dXLj4EaMfsS4P5CsSXCHEhQDnQ7XZlOp3KyclJ2INYECDAgQABDgQIcCBAgAMBAhwIEOBAgAAHAgQ4ECDAgQABDgQIcCBAgAMBAhwIEOBAgAAHAgQ4ECDAgQABDgQIcCBAgAMBAhwIEOBAgAAHAgQ4ECDAgQABDgQoB5rNphweHsrbt2/DHsSCAO1YeoGt29nC9YHiQoAABwIEOBCgHcu6bdnC9YHiQoB2LBvzZMFhDBQXApQDWXioPvEhQIADAcqBrNtG9y0+B9ptWNlvuLq6kmq1KmdnZ3J5eRn2bs7p6WlYQ5Fto21tW24CdHFxEbZQRNtqW9tGFw5wIECAAwECHPIXoMm5HB0eJmcnp8uRnE/CfTsybOr7aA7DFvBRbitQtTuV6bQrVZnI+fkuG+9QhmQHC8TThbtTmawqabCOdP3oXCMWqoStD21uzZE0m0fhsU1dz57X1DgkB0ufG46XFJdPnpe9RniO3U8Vwj25DVASCGvwpZbcdKsidju1qnQjrZJVpYlUqyXNglYIbej6r5SqVdE9SrdLXZna87T5T0o3s3WrJpPzpoajKl09nu0enqchnD3vpqXHmSSPbd1YFVTV7HjARznvwumSNGaVVIisMiQP0Uy1ki7eRFv6cFJKA5XeM7euWyVd1yXbM7G0aZiaWfWxACb3hOfNPRZYJpIuXBgHJVUoVIREVRt8qCAlXX9Uq08rUBLSO8cE1hdJgEJlSMZBFpawW9kZEuZj9221ate6gWkFSqra0rFNGlLGQHhI/KfyJA1btJpQRWLGqTyfXfgmTatCtUt4sBu5qUDHx8dhC0V0fX0dZQXKVYCy8QyK4dmzZ8mtta9YA2TTiFfqdru30+n09uTkJOzZLDtu9hqP8djHIz/m/+7s735bbWvbIh4DAbtHgACH3Abow4cPCxcgL6KpQC9fvkyWd+/ehT3A7kURoFarJT/8cC3ffnstP/30Xdi7Qr8jnZHdNuRFoyENXV40+mK7gE2JIkDPnz+XX38V+fJLkcPDv4W966pIvd2TXq8n79tj6SSpAjYjigC9evVKfv753/LLL1/J119/H/Y+QaUsMhqHDcAvmjGQ+f333+TPP/8btp7AwmMhAjYkqgD98cdv8tdf/wtb6xrpcCgdAzUGZem1K2E/4BdNgMrlf8iPP/5Lx0N/D3tWqLclyUpdxz46/rExUK9dT+8DNiS3AbLzpOYXm1X6+vXr2flTQB5E1YUD8oYAAQ4ECHBgPhB2JhvPMh/IiflAxcN8IACMgQAPAgQ4ECDAYY8DNJJ+mAfUaHSkH/YCm7S3ARp1OjIO84B6vbaU+2Ey3agvfV0Z9TVUujT0cXbbGdlJp3ob5gtl93c62SS89H57fMcOkOxKj4Xi2tsAjbVhl+dPvB6PJZ0JpLe2og8Yl9vS1mDYbW3QEWnrdm2gAZm7v5ZOwksCWWtLTx9TG6cVrT+w6RF2TBTV3gboTnjWYIEba5Xqj8tSe2DK0HwgK7VK8tix1ITzu4ttbwNUaddlrOOfjjb0jlYP0VD0tbR87JLdVa9X0smqs0p1V12T0m9owOz5lZrogUQ0SCi48APVpTgT4b73t2/qb/RPPBVnIhSWfZkwkLKOhag/IECPZr/lpy3a4wMIEOBBgAAH5gNhZ5gPtCHxfQsHL76FA8AYCPAgQIADAQIc9jtAo05yTaCNYxoDgr0OUH8gUq/00wttKZvj08nm+CS3nXtzfdITTUcL5g6lJ6KGeUP/1H3huCiuPQ6QTTcoS7tWkdEgtPRkTkJb2mUN1bgm7XZZBmGuj80F6rVFOlaxFs0dSuYG2ZnZ5eRcOE7nwf4GyOb2jLTBaxXSBKUVJVOuSGVuwpDlKlWWioUmbAGr7G2A+v2K/EdLStsqS30kWRF6SH0218fKi1aWFXOHkpl1WTcPxRZ+oLoUZyJg0zgTAcCef40NbBkBAhwIEODAfCDsDPOBNoRv4YqHb+EAMAYCPAgQ4ECAAIf9DVC/IS/C9YFsTtCD560xrwdOe1yB7DeIptcHet9OL1Figel07BfOW2rm5/WE9WziELCmYnThKmXNy1hv69LWUJXHA+lbwMK8nvL9awMBaypGgJLwlGWk1afR/zQhq64NBCyyxwGyblm4RuqgLL22TZUzY+lnA58wr6e84tpAwELhB6pLcSYCNo0zEQAUZAwEbAkBAhwIEODAfCDsDPOBNoRv4YqHb+EAMAYCPAgQ4ECAAIf9DdDcfKCtzVL4ZD5ROP/uxYvktdNpE09kl1Oxp68zrwk7s8cVKJsPVJeRzVG4Pxcoa9zJfm2sS64blM0TWn2doPQ12/VyuLVzVe++Tvr8h4//sAfmNSE39roLNxrYFRf6UqlrS743F6g81sasj+kP7PxrbZRLrhs0myf06OsEffo6yfPbNT2+hvD+8VfJ5jUhN/Y6QJXyx0pwfy5QpVZJ5gCNpab/BA9cN8g7T+jB1zEaBLvkyqOOH+Y1IT/2+0uE+TCEP2ddqoo2Z6sA2sAXqa+aJ7TOdYLuvI6+vq7bMqpr5VlrHlIYV9k4KMxrQo6EH6gutZ9nIry/fVN/o396vb993+vd6hhFl4eO9vF13r+p375Z+IKrjrNfOBMhavapPkjGL/7Pc+326Rirniz3j3bvdbRiLe6ALTsO8qqgAbJvtj7HRYLvvk7FLh9JNvZKQQMEbAYBAhyYD4SdyOYCGeYDOWXfwqGY+BYOKCgCBDgQIMCBAAEOBAhwIECAAwECHHL1g1QUV6w/SM1NgAAChCc7ODiws0LCFmLBGCgH0vCkt4gLAcoZQhQXApQj9ODiQ4ByxIoP46C4EKAdy8Y/iBMByom0+jAGig0ByoEsM2QnPgQoB7IuHF25+BCgHbMvDeYrEF8ixIUA5UC325XpdConJydhD2JBgAAHAgQ4ECDAgQABDgQIcCBAgAMBAhwIEOBAgAAHAgQ4ECDAgQABDgQIcCBAgAMBAhwIEOBAgAAHAgQ4ECDAgQABDgQIcCBAgAMBAhwIEOBAgAAHAgQ4ECDAgQDlQLPZlMPDQ3n79m3Yg1gQoB1Lr1B3O1u4wFZcCBDgQIAABwK0Y1m3LVu4wFZcCNCOZWOeLDiMgeJCgHIgCw/VJz4ECHAgQDmQddvovsXnQLsNK/sNV1dXUq1W5ezsTC4vL8PezTk9PQ1rKLJttK1ty02ALi4uwhaKaFtta9s+SxfOuibZkrm/DcTooNvtrvXVT1aBjo+Pw57VvvnmmyQk80UuC022z7ZPTk6oQAUXawU6mE6nKwM0HA5nAXpMQ7fH2wmS9wN0v9dIFw7RBkg//VcGyKpOFqDHsP8hj69AQ2keNvXPOdWuTLvVsIF9FG2AtCGvDJD3S4QsNGY+OMa271agNECT1o3ctEoyOT+So3OR1s2N6Cb2VJwBEvk/32Ma6aD0CU0AAAAASUVORK5CYII=;" vertex="1" parent="1">
          <mxGeometry x="510" y="-160" width="208" height="293" as="geometry" />
        </mxCell>
        <mxCell id="Rbzb1a8hx_c8ypVAKanI-21" value="" style="html=1;rounded=1;absoluteArcSize=1;arcSize=10;whiteSpace=wrap;fillColor=none;strokeColor=#5f0ed8;strokeWidth=3;" vertex="1" parent="1">
          <mxGeometry x="540" y="-30" width="50" height="20" as="geometry" />
        </mxCell>
        <mxCell id="Rbzb1a8hx_c8ypVAKanI-22" value="" style="endArrow=open;html=1;rounded=0;align=center;verticalAlign=top;endFill=0;labelBackgroundColor=none;endSize=6;strokeColor=#830ae6;strokeWidth=3;exitX=0.5;exitY=1;exitDx=0;exitDy=0;entryX=0;entryY=0.5;entryDx=0;entryDy=0;" edge="1" parent="1" source="Rbzb1a8hx_c8ypVAKanI-21" target="Rbzb1a8hx_c8ypVAKanI-2">
          <mxGeometry relative="1" as="geometry">
            <mxPoint x="365" y="-240" as="sourcePoint" />
            <mxPoint x="610" y="251" as="targetPoint" />
            <Array as="points">
              <mxPoint x="560" y="310" />
            </Array>
          </mxGeometry>
        </mxCell>
        <mxCell id="Rbzb1a8hx_c8ypVAKanI-23" value="" style="endArrow=open;html=1;rounded=0;align=center;verticalAlign=top;endFill=0;labelBackgroundColor=none;endSize=6;strokeColor=#830ae6;strokeWidth=3;exitX=0.75;exitY=1;exitDx=0;exitDy=0;entryX=0;entryY=0.5;entryDx=0;entryDy=0;" edge="1" parent="1" source="Rbzb1a8hx_c8ypVAKanI-16" target="Rbzb1a8hx_c8ypVAKanI-2">
          <mxGeometry relative="1" as="geometry">
            <mxPoint x="575" as="sourcePoint" />
            <mxPoint x="610" y="318" as="targetPoint" />
            <Array as="points">
              <mxPoint x="550" y="260" />
            </Array>
          </mxGeometry>
        </mxCell>
      </root>
    </mxGraphModel>
  </diagram>
</mxfile>
